<svg xmlns="http://www.w3.org/2000/svg" viewBox="0 0 940.28 662"><defs><style>.cls-1,.cls-3{fill:#1c2833;}.cls-2{fill:none;}.cls-2,.cls-3{stroke:#1c2833;stroke-miterlimit:10;stroke-width:8px;}.cls-3{fill-rule:evenodd;}</style></defs><g id="Layer_1" data-name="Layer 1"><ellipse class="cls-1" cx="469.35" cy="89.79" rx="87.01" ry="86.29"/><path class="cls-1" d="M499.45,28c46,0,83.51,37.14,83.51,82.79s-37.47,82.8-83.51,82.8-83.52-37.15-83.52-82.8S453.4,28,499.45,28m0-7c-50,0-90.52,40.2-90.52,89.79s40.53,89.8,90.52,89.8S590,160.38,590,110.79,549.43,21,499.45,21Z" transform="translate(-30.09 -21)"/><path class="cls-2" d="M325.61,291.1" transform="translate(-30.09 -21)"/><path class="cls-2" d="M499.48,219.83" transform="translate(-30.09 -21)"/><path class="cls-3" d="M674.72,367.24c0-85.69-44-155.16-174.56-155.16S325.61,281.55,325.61,367.24,370.36,679,500.88,679,674.72,452.93,674.72,367.24Z" transform="translate(-30.09 -21)"/></g><g id="Layer_3" data-name="Layer 3"><path class="cls-1" d="M838.47,178.92c-34.49,0-62.54-27.82-62.54-62s28.05-62,62.54-62S901,82.7,901,116.9,873,178.92,838.47,178.92Z" transform="translate(-30.09 -21)"/><path class="cls-1" d="M838.47,58.38c32.56,0,59,26.25,59,58.52s-26.49,58.52-59,58.52-59-26.25-59-58.52,26.48-58.52,59-58.52m0-7c-36.47,0-66,29.33-66,65.52s29.57,65.52,66,65.52,66-29.34,66-65.52-29.57-65.52-66-65.52Z" transform="translate(-30.09 -21)"/><path class="cls-2" d="M711.62,248.46" transform="translate(-30.09 -21)"/><path class="cls-2" d="M838.49,196.46" transform="translate(-30.09 -21)"/><path class="cls-3" d="M966.37,304c0-62.53-32.13-113.21-127.37-113.21S711.62,241.49,711.62,304s32.66,227.49,127.9,227.49S966.37,366.55,966.37,304Z" transform="translate(-30.09 -21)"/></g><g id="Layer_5" data-name="Layer 5"><ellipse class="cls-1" cx="130.85" cy="95.52" rx="62.54" ry="62.02"/><path class="cls-1" d="M160.94,58c32.55,0,59,26.25,59,58.52S193.49,175,160.94,175s-59-26.26-59-58.52S128.38,58,160.94,58m0-7c-36.48,0-66,29.33-66,65.52S124.46,182,160.94,182s66-29.34,66-65.52S197.41,51,160.94,51Z" transform="translate(-30.09 -21)"/><path class="cls-2" d="M161,196.08" transform="translate(-30.09 -21)"/><path class="cls-3" d="M288.83,303.64c0-62.53-32.13-113.22-127.37-113.22S34.09,241.11,34.09,303.64,66.74,531.13,162,531.13,288.83,366.17,288.83,303.64Z" transform="translate(-30.09 -21)"/></g></svg>